inDegrees=yes
name=ik_S51_A04_T02
DataType=double
version=3
OpenSimVersion=4.3-2021-08-27-4bc7ad9
endheader
time	pelvis_tilt	pelvis_list	pelvis_rotation	pelvis_tx	pelvis_ty	pelvis_tz	hip_flexion_r	hip_adduction_r	hip_rotation_r	knee_angle_r	knee_angle_r_beta	ankle_angle_r	subtalar_angle_r	mtp_angle_r	hip_flexion_l	hip_adduction_l	hip_rotation_l	knee_angle_l	knee_angle_l_beta	ankle_angle_l	subtalar_angle_l	mtp_angle_l	lumbar_extension	lumbar_bending	lumbar_rotation	arm_flex_r	arm_add_r	arm_rot_r	elbow_flex_r	pro_sup_r	wrist_flex_r	wrist_dev_r	arm_flex_l	arm_add_l	arm_rot_l	elbow_flex_l	pro_sup_l	wrist_flex_l	wrist_dev_l
10.67999999999986	-7.727914745667381	-4.804505612624514	35.95619908857314	0	0.9399999999999999	0	18.74249242558344	-17.98079811147808	-14.31794131423553	20.05481962415547	0.3500226333350846	0	0	0	29.38564191976661	-1.108799125481052	-11.75981459696139	20.6228169063493	0.3599360560517464	0	0	0	0	0	0	20.21480440913239	-20.21480440913239	3.22948511187463	61.78806969060027	86.77051507301168	0	0	20.21480440913239	-20.21480440913239	3.22948511187463	61.78806969060027	86.77051507268187	0	0
10.69999999999986	-7.707762461931344	-4.813371693263406	35.96971701477874	0	0.9399999999999999	0	18.01261435121507	-17.2261687538936	-14.34948500822338	19.23088912997713	0.3356423334040887	0	0	0	28.29536307937056	-1.096816634839943	-11.38370091696488	19.11059867454694	0.3335428688981084	0	0	0	0	0	0	20.21986130075107	-20.21986130075106	3.230187248929346	61.79784769782403	86.76981293599587	0	0	20.21986130075107	-20.21986130075106	3.230187248929346	61.79784769782403	86.76981293566622	0	0
10.71999999999986	-6.744156772894104	-4.16049230336825	36.22667289708595	0	0.9399999999999999	0	16.79575994329404	-17.24330134526357	-14.54168375555322	19.23077144864284	0.3356402794773372	0	0	0	26.12451712520313	-1.041008425332753	-11.13432686838673	17.66774343080338	0.308360294265118	0	0	0	0	0	0	20.24020826586893	-20.24020826586892	3.23298269126513	61.83668344515532	86.76701749381489	0	0	20.24020826586893	-20.24020826586892	3.23298269126513	61.83668344515532	86.7670174934855	0	0
10.73999999999986	-6.757258881281989	-4.154882842480534	36.21704016494213	0	0.9399999999999999	0	16.10154031970634	-16.51950049597359	-14.58963642756957	18.40926103518669	0.3213022179231074	0	0	0	25.14794654677927	-1.043587778819659	-11.02399236651723	16.25278231521299	0.2836645640103735	0	0	0	0	0	0	20.24654041909591	-20.2465404190959	3.233861876849096	61.84892432728777	86.76613830827966	0	0	20.24654041909591	-20.2465404190959	3.233861876849096	61.84892432728777	86.76613830795043	0	0
10.75999999999986	-6.116114528719348	-3.776164606479797	36.36970815888709	0	0.9399999999999999	0	14.71664287199862	-15.77759811107403	-14.64743933933729	17.66811028973018	0.308366697161281	0	0	0	23.49758942601194	-1.124406035680501	-10.64741190790197	15.4152080469995	0.2690461353000661	0	0	0	0	0	0	20.25293693427244	-20.25293693427244	3.234747937959559	61.86125478954474	86.7652522472183	0	0	20.25293693427244	-20.25293693427244	3.234747937959559	61.86125478954474	86.76525224688922	0	0
10.77999999999986	-5.441443006618135	-3.305397920214307	36.49988353309112	0	0.9399999999999999	0	12.89885585039021	-14.39644658863635	-15.00343892484981	13.17348531874356	0.2299206927752097	0	0	0	21.7998735774555	-1.089928043496348	-10.53999441743295	14.16643864784381	0.2472509976866479	0	0	0	0	0	0	20.26406268735981	-20.2640626873598	3.236280849963627	61.88256150063393	86.76371933529906	0	0	20.26406268735981	-20.2640626873598	3.236280849963627	61.88256150063393	86.76371933497029	0	0
10.79999999999986	-5.165759861997275	-3.084019711454246	36.54494807770605	0	0.9399999999999999	0	12.52046125664041	-14.41990085807671	-15.13208231577618	12.30481075893489	0.214759461578236	0	0	0	20.66693525452501	-1.020802090649792	-10.48254581145447	12.48725515802242	0.217943717044136	0	0	0	0	0	0	20.27674525045066	-20.27674525045066	3.238014563644206	61.90661860443123	86.76198562171442	0	0	20.27674525045066	-20.27674525045066	3.238014563644206	61.90661860443123	86.76198562138595	0	0
10.81999999999986	-4.884225941761174	-2.884184854402275	36.59331438940435	0	0.9399999999999999	0	11.07625584436257	-13.24895262103428	-15.07073197424025	9.888933121294937	0.1725944424761164	0	0	0	19.5963472113943	-1.097188757853354	-10.3325156394354	11.84214994115326	0.2066845069879771	0	0	0	0	0	0	20.28652570611434	-20.28652570611434	3.239369576054672	61.92546973528162	86.76063060937908	0	0	20.28652570611434	-20.28652570611434	3.239369576054672	61.92546973528162	86.76063060905078	0	0
10.83999999999986	-4.741179170211257	-2.804990545402969	36.61852921698969	0	0.9399999999999999	0	10.47093642252662	-12.71405246652738	-14.98918216859875	9.340329644266973	0.1630195055140894	0	0	0	18.82637655735525	-1.264780362073511	-10.19852390336101	10.80699153667546	0.1886175845501483	0	0	0	0	0	0	20.29157709387574	-20.29157709387574	3.240069309327682	61.93520410084892	86.75993087614484	0	0	20.29157709387574	-20.29157709387574	3.240069309327682	61.93520410084892	86.75993087581672	0	0
10.85999999999986	-4.727540305307778	-2.817555131116968	36.60842576266978	0	0.9399999999999999	0	10.03181766641057	-12.21794068309484	-15.12566760976853	8.901581596747716	0.1553619074981818	0	0	0	18.81571484874015	-1.276812465952744	-10.28212937108044	10.39639533719745	0.1814513289730815	0	0	0	0	0	0	20.29571838390252	-20.29571838390251	3.240641114988053	61.94315361297664	86.75935907051617	0	0	20.29571838390252	-20.29571838390251	3.240641114988053	61.94315361297664	86.75935907018814	0	0
10.87999999999986	-3.958582494491216	-2.436510730815181	36.7853782827593	0	0.9399999999999999	0	8.74304578210006	-11.61640341535162	-15.4492371063208	8.43907396163576	0.1472896264498657	0	0	0	16.99242550272455	-1.560222602769158	-10.17053779387665	8.918548484700766	0.1556580355567795	0	0	0	0	0	0	20.30175850373684	-20.30175850373684	3.241473093506139	61.95471435592891	86.75852709204409	0	0	20.30175850373684	-20.30175850373684	3.241473093506139	61.95471435592891	86.75852709171627	0	0
10.89999999999986	-3.751907947788314	-2.337539774287999	36.86707962892264	0	0.9399999999999999	0	8.210042564368136	-11.14440688405409	-15.54343438093568	8.1058307951389	0.1414734359847238	0	0	0	16.32678905192282	-1.663467115218075	-10.15283298513213	8.262965903990668	0.1442159610046668	0	0	0	0	0	0	20.30686293919869	-20.30686293919869	3.242179749752012	61.96454266130512	86.75782043583739	0	0	20.30686293919869	-20.30686293919869	3.242179749752012	61.96454266130512	86.75782043550971	0	0
10.91999999999986	-3.405329074251924	-2.174434830834003	37.08407064290338	0	0.9399999999999999	0	7.567790499874225	-10.73426307577395	-15.66356158036686	7.768761365438632	0.1355904646286345	0	0	0	15.47144435179216	-1.720800420934727	-10.19768336189273	7.568707044238527	0.1320988580408504	0	0	0	0	0	0	20.31334068484448	-20.31334068484448	3.243078010901299	61.97703906427223	86.75692217473788	0	0	20.31334068484448	-20.31334068484448	3.243078010901299	61.97703906427223	86.75692217441036	0	0
10.93999999999986	-3.117612902251344	-2.055734429538298	37.29964261530336	0	0.9399999999999999	0	7.223689508159042	-10.69001331764528	-15.88245668410746	7.773665928785282	0.1356760654074062	0	0	0	14.76791400586531	-1.811475856015581	-10.14673626390978	7.023198330955157	0.1225779348957379	0	0	0	0	0	0	20.31793009094191	-20.31793009094191	3.243712834034203	61.98586599634447	86.75628735164014	0	0	20.31793009094191	-20.31793009094191	3.243712834034203	61.98586599634447	86.75628735131275	0	0
